<?xml version="1.0" standalone="no"?>
<!DOCTYPE svg PUBLIC "-//W3C//DTD SVG 20010904//EN"
 "http://www.w3.org/TR/2001/REC-SVG-20010904/DTD/svg10.dtd">
<svg version="1.0" xmlns="http://www.w3.org/2000/svg"
 width="550.000000pt" height="550.000000pt" viewBox="0 0 550.000000 550.000000"
 preserveAspectRatio="xMidYMid meet">
<metadata>
Created by potrace 1.14, written by Peter Selinger 2001-2017
</metadata>
<g transform="translate(0.000000,550.000000) scale(0.100000,-0.100000)"
fill="#000000" stroke="none">
<path d="M2338 5105 c-1 -2 -16 -5 -33 -8 -127 -20 -240 -77 -336 -169 -27
-25 -29 -26 -73 -13 -45 14 -101 25 -146 31 -14 1 -25 3 -25 4 0 5 -64 10
-172 14 -242 8 -380 -52 -453 -194 -22 -43 -25 -97 -7 -135 14 -32 78 -84 125
-101 23 -9 42 -19 42 -21 0 -3 -10 -26 -22 -52 l-21 -47 -111 -38 c-281 -96
-638 -260 -714 -329 -20 -18 -55 -129 -67 -212 -3 -22 -10 -66 -16 -97 -5 -32
-12 -74 -14 -95 -2 -21 -6 -58 -10 -83 -5 -46 -11 -93 -20 -175 -3 -25 -8 -66
-11 -91 -3 -25 -7 -71 -9 -102 -2 -31 -4 -57 -5 -57 -1 0 -3 -20 -5 -45 -2
-25 -6 -70 -9 -100 -2 -30 -8 -89 -11 -130 -3 -41 -8 -97 -10 -125 -3 -27 -7
-88 -10 -135 -3 -47 -8 -105 -10 -130 -2 -25 -7 -94 -11 -155 -4 -60 -8 -121
-8 -134 -1 -16 -12 -27 -33 -36 -37 -16 -73 -49 -73 -68 0 -7 -5 -18 -12 -25
-14 -14 -14 -13 -33 -117 -11 -58 -14 -123 -11 -240 4 -132 13 -239 20 -240 4
-1 271 -205 456 -348 9 -7 42 -32 75 -57 33 -25 62 -47 65 -51 3 -3 23 -18 45
-35 22 -16 44 -32 50 -37 5 -4 28 -21 50 -38 22 -16 47 -35 55 -42 8 -7 89
-68 180 -136 91 -69 167 -127 170 -130 3 -3 28 -22 55 -40 28 -19 52 -38 55
-41 3 -3 19 -14 35 -25 114 -74 197 -96 340 -91 124 5 146 11 670 202 83 30
159 59 170 64 11 5 72 28 135 51 63 22 129 47 145 54 17 7 46 18 65 25 19 7
44 16 55 21 35 15 359 140 375 144 8 2 66 24 129 49 63 26 120 46 128 46 7 0
13 4 13 10 0 5 3 9 8 8 4 0 16 2 27 7 85 34 143 55 148 55 4 0 26 8 50 19 23
10 80 33 127 51 47 18 99 39 115 46 97 40 331 128 338 126 4 -1 7 3 7 8 0 6 8
10 18 10 10 0 42 12 72 27 59 30 54 20 85 172 9 47 19 167 18 229 l-1 64 37
15 c20 9 68 26 108 38 116 36 304 30 381 -13 24 -14 28 -41 11 -75 -17 -33
-151 -197 -161 -197 -4 0 -8 -5 -8 -10 0 -6 -9 -21 -20 -33 -42 -44 -79 -134
-76 -184 2 -26 8 -49 14 -51 7 -2 12 -10 12 -17 0 -19 56 -60 110 -80 60 -22
245 -28 325 -10 33 7 61 14 63 15 3 3 13 6 49 15 18 4 38 14 44 21 6 8 18 14
25 14 23 0 38 44 25 69 -14 24 -34 23 -82 -5 -101 -60 -333 -80 -430 -37 -114
51 -101 99 93 328 38 44 68 86 68 93 0 6 4 12 10 12 13 0 40 94 35 121 -12 63
-64 96 -195 126 -30 7 -186 6 -225 -1 -70 -12 -149 -35 -189 -54 l-40 -20 -19
37 c-10 20 -39 55 -63 78 -43 40 -44 43 -45 105 -1 86 -7 246 -13 348 -3 47
-8 130 -11 185 -5 116 -13 241 -21 340 -3 39 -7 99 -9 135 -2 36 -6 92 -9 125
-3 33 -8 92 -11 130 -3 39 -8 93 -11 120 -4 28 -8 64 -9 80 -2 17 -6 59 -10
95 -4 36 -9 76 -10 90 -2 14 -4 27 -5 30 -1 3 -2 8 -1 12 0 6 -7 54 -23 138
-30 160 -55 226 -98 261 -80 63 -349 175 -660 274 -81 26 -146 50 -144 54 46
79 60 176 29 203 -20 18 -81 50 -86 46 -2 -2 -10 2 -18 9 -58 48 -318 62 -449
23 -19 -5 -38 -10 -41 -10 -3 0 -6 27 -5 60 0 52 -3 63 -29 90 -35 37 -100 69
-172 86 -47 11 -245 18 -255 9z"/>
</g>
</svg>
